<?xml version="1.0" standalone="no"?> <!DOCTYPE svg PUBLIC "-//W3C//DTD SVG 1.0//EN" "http://www.w3.org/TR/2001/REC-SVG-20010904/DTD/svg10.dtd" > <svg xmlns="http://www.w3.org/2000/svg" width="100%" height="100%">
<defs >
<font id="futurademic" horiz-adv-x="427" ><font-face
    font-family="FuturaDemiC"
    units-per-em="1000"
    panose-1="2 0 5 3 4 0 0 2 0 4"
    ascent="750"
    descent="-170"
    alphabetic="0" />
<missing-glyph horiz-adv-x="233" />
<glyph unicode=" " glyph-name="space" horiz-adv-x="233" />
<glyph unicode="!" glyph-name="exclam" horiz-adv-x="252" d="M48 65Q48 98 70 120T126 143Q159 143 181 121T204 65Q204 32 182 10T126 -13Q93 -13 71 9T48 65ZM64 203V667H188V203H64Z" />
<glyph unicode="&quot;" glyph-name="quotedbl" horiz-adv-x="400" d="M335 399H245L222 667H358L335 399ZM155 399H65L42 667H178L155 399Z" />
<glyph unicode="#" glyph-name="numbersign" horiz-adv-x="600" d="M361 391H267L251 290H345L361 391ZM298 0L328 186H234L204 0H82L112 186H10L27 290H129L145 391H43L60 495H162L190 667H312L284 495H378L406 667H528L500 495H602L585 391H483L467 290H569L552
186H450L420 0H298Z" />
<glyph unicode="$" glyph-name="dollar" horiz-adv-x="568" d="M326 761V665Q370 662 409 643T480 590L414 506Q409 512 400 521T378 539T347 554T309 560Q265 560 244 538T222 489Q222 470 231 457T256 434T291 417T330 401Q342 396 357 389T389 374T422 356T451
333Q472 313 487 283T502 209Q502 170 490 136T455 75T400 28T326 2V-99H264V0Q209 3 171 20T107 57Q85 74 72 89T48 119L123 196Q133 181 147 166T179 138T221 117T271 108Q316 108 344 130T372 196Q372 209 369 220T355 242T327 265T280 289Q238 307 204 323T140
371Q135 377 128 386T113 410T102 444T97 488Q97 496 99 515T111 557T141 603T196 645Q210 653 226 658T264 665V761H326Z" />
<glyph unicode="%" glyph-name="percent" horiz-adv-x="774" d="M576 62Q613 62 636 86T660 148Q660 186 637 210T576 234Q539 234 516 210T492 148Q492 110 515 86T576 62ZM576 306Q615 306 646 294T699 261T732 211T744 148Q744 114 733 85T699 35T646 2T576
-10Q537 -10 506 2T453 35T420 85T408 148Q408 182 419 211T453 261T506 294T576 306ZM559 689L612 659L215 -28L162 3L559 689ZM198 431Q235 431 258 455T282 517Q282 555 259 579T198 603Q161 603 138 579T114 517Q114 479 137 455T198 431ZM198 675Q237 675
268 663T321 630T354 580T366 517Q366 483 355 454T321 404T268 371T198 359Q159 359 128 371T75 404T42 454T30 517Q30 551 41 580T75 630T128 663T198 675Z" />
<glyph unicode="&amp;" glyph-name="ampersand" horiz-adv-x="710" d="M323 427L353 448Q380 467 389 486T399 522Q399 547 384 567T334 588Q299 588 283 569T266 526Q266 507 274 492T294 463L323 427ZM277 302Q239 282 211 254T182 187Q182 149 210 124T280
99Q300 99 319 105T353 120T382 139T403 157L277 302ZM654 249Q639 230 629 218T610 197T596 182T582 168L567 153L702 0H541L476 75Q464 64 444 49T397 20T335 -5T261 -15Q210 -15 171 1T105 44T66 105T52 176Q52 213 64 241T94 291T129 325T159 345L211 376Q202
385 191 398T169 430T151 470T144 516Q144 547 155 577T189 630T246 667T328 682Q371 682 404 669T461 633T495 583T507 523Q507 487 487 447T413 375L385 358L495 232Q529 265 548 287T578 324L654 249Z" />
<glyph unicode="&apos;" glyph-name="quotesingle" horiz-adv-x="220" d="M155 399H65L42 667H178L155 399Z" />
<glyph unicode="(" glyph-name="parenleft" horiz-adv-x="320" d="M167 -170Q152 -143 136 -104T103 -2Q89 50 79 124T68 298Q68 398 78 472T103 598Q119 660 135 699T167 766L264 713Q244 672 233 637T214 570Q208 544 203 510T193 440T187 367T184 298Q184 266
186 230T193 157T202 86T214 26Q222 -6 233 -41T264 -117L167 -170Z" />
<glyph unicode=")" glyph-name="parenright" horiz-adv-x="320" d="M153 766Q168 739 184 700T217 598Q231 546 241 472T252 298Q252 198 242 124T217 -2Q201 -64 185 -103T153 -170L56 -117Q76 -76 87 -41T106 26Q112 52 117 86T127 156T133 229T136 298Q136
330 134 366T127 439T118 510T106 570Q98 602 87 637T56 713L153 766Z" />
<glyph unicode="*" glyph-name="asterisk" horiz-adv-x="568" d="M258 623L238 749H330L310 623L424 682L452 594L325 574L416 484L341 430L284 545L227 429L152 483L243 574L116 593L144 681L258 623Z" />
<glyph unicode="+" glyph-name="plus" horiz-adv-x="500" d="M33 395H189V551H311V395H467V283H311V127H189V283H33V395Z" />
<glyph unicode="," glyph-name="comma" horiz-adv-x="328" d="M110 138L222 125L81 -140L4 -131L110 138Z" />
<glyph unicode="-" glyph-name="hyphen" horiz-adv-x="340" d="M40 286H300V174H40V286Z" />
<glyph unicode="." glyph-name="period" horiz-adv-x="252" d="M48 65Q48 98 70 120T126 143Q159 143 181 121T204 65Q204 32 182 10T126 -13Q93 -13 71 9T48 65Z" />
<glyph unicode="/" glyph-name="slash" horiz-adv-x="550" d="M382 741L470 701L88 -183L0 -143L382 741Z" />
<glyph unicode="0" glyph-name="zero" horiz-adv-x="568" d="M284 570Q263 570 241 558T199 517T168 444T156 334Q156 269 168 224T198 150T240 110T284 97Q305 97 328 109T369 150T400 223T412 334Q412 399 400 444T369 517T328 557T284 570ZM284 -15Q234 -15
188 7T105 73T48 182T26 334Q26 420 47 485T105 594T187 660T284 682Q334 682 380 660T463 594T520 485T542 333Q542 247 521 182T463 73T381 7T284 -15Z" />
<glyph unicode="1" glyph-name="one" horiz-adv-x="568" d="M228 555H132V667H358V0H228V555Z" />
<glyph unicode="2" glyph-name="two" horiz-adv-x="568" d="M214 223Q218 228 233 245T266 284T301 327T328 362Q342 382 354 411T367 469Q367 514 339 542T268 570Q242 570 223 561T191 536T170 500T162 459H28Q30 510 48 551T98 621T170 666T262 682Q320 682
364 664T437 616T482 548T497 470Q497 431 486 398T456 336T417 283T376 237L261 112H502V0H18L214 223Z" />
<glyph unicode="3" glyph-name="three" horiz-adv-x="568" d="M51 493Q55 538 73 573T121 633T187 669T268 682Q365 682 421 633T477 498Q477 485 475 467T465 430T442 392T400 358Q410 354 427 344T461 316T490 269T502 199Q502 148 484 108T433 41T357 -1T264
-15Q216 -15 174 -1T100 40T48 105T24 192H154Q160 150 188 124T265 97Q293 97 313 106T347 131T366 165T372 203Q372 221 366 239T347 273T313 297T261 307H244V401H262Q286 401 303 408T331 429T348 458T353 492Q353 532 329 556T265 580Q248 580 232 575T203
558T182 531T173 493H51Z" />
<glyph unicode="4" glyph-name="four" horiz-adv-x="568" d="M348 222V487L176 222H348ZM470 222H548V118H470V0H348V118H22V176L353 679H470V222Z" />
<glyph unicode="5" glyph-name="five" horiz-adv-x="568" d="M472 555H250L226 450Q236 452 246 453T270 454Q319 454 361 439T435 395T484 324T502 228Q502 181 487 137T441 59T360 5T241 -15Q221 -15 196 -13T143 -1T85 24T26 70L69 182Q80 168 96 153T134 126T181
105T238 97Q298 97 335 133T372 226Q372 252 363 276T335 319T288 349T221 360Q195 360 162 352T93 317H85L164 667H472V555Z" />
<glyph unicode="6" glyph-name="six" horiz-adv-x="568" d="M283 89Q309 89 331 98T370 123T396 162T406 212Q406 239 397 261T371 300T332 326T283 335Q257 335 235 326T196 301T170 262T160 212Q160 185 169 163T195 124T234 98T283 89ZM409 625L251 423Q267
430 285 434T326 439Q366 439 404 425T471 383T518 315T536 222Q536 178 522 136T476 60T398 6T283 -15Q220 -15 173 4T94 54T46 128T30 215Q30 247 37 275T56 329T83 378T114 423L317 695L409 625Z" />
<glyph unicode="7" glyph-name="seven" horiz-adv-x="568" d="M356 555H46V667H560L154 -28L55 40L356 555Z" />
<glyph unicode="8" glyph-name="eight" horiz-adv-x="568" d="M284 87Q328 87 357 116T386 191Q386 237 357 266T284 295Q240 295 211 266T182 191Q182 145 211 116T284 87ZM284 402Q326 402 351 427T377 495Q377 537 352 562T284 588Q242 588 217 563T191 495Q191
453 216 428T284 402ZM397 348Q453 330 484 285T516 182Q516 141 500 105T454 43T381 1T284 -15Q230 -15 187 0T114 42T68 105T52 182Q52 240 83 285T171 348Q133 367 104 403T75 496Q75 532 88 566T127 625T193 666T284 682Q336 682 375 667T440 626T480 566T493
496Q493 440 464 404T397 348Z" />
<glyph unicode="9" glyph-name="nine" horiz-adv-x="568" d="M285 578Q259 578 237 569T198 544T172 505T162 455Q162 428 171 406T197 367T236 341T285 332Q311 332 333 341T372 366T398 405T408 455Q408 482 399 504T373 543T334 569T285 578ZM159 42L317 244Q301
237 283 233T242 228Q201 228 164 242T97 284T50 352T32 445Q32 489 46 531T91 607T170 661T285 682Q348 682 395 663T474 613T522 539T538 452Q538 420 531 392T512 338T485 289T454 244L251 -28L159 42Z" />
<glyph unicode=":" glyph-name="colon" horiz-adv-x="252" d="M48 65Q48 98 70 120T126 143Q159 143 181 121T204 65Q204 32 182 10T126 -13Q93 -13 71 9T48 65ZM48 370Q48 403 70 425T126 448Q159 448 181 426T204 370Q204 337 182 315T126 292Q93 292 71 314T48 370Z" />
<glyph unicode=";" glyph-name="semicolon" horiz-adv-x="328" d="M110 138L222 125L81 -140L4 -131L110 138ZM84 370Q84 403 106 425T162 448Q195 448 217 426T240 370Q240 337 218 315T162 292Q129 292 107 314T84 370Z" />
<glyph unicode="&lt;" glyph-name="less" horiz-adv-x="500" d="M467 184V64L33 282V386L467 604V484L161 334L467 184Z" />
<glyph unicode="=" glyph-name="equal" horiz-adv-x="500" d="M33 306H467V200H33V306ZM33 478H467V372H33V478Z" />
<glyph unicode="&gt;" glyph-name="greater" horiz-adv-x="500" d="M33 484V604L467 386V282L33 64V184L339 334L33 484Z" />
<glyph unicode="?" glyph-name="question" horiz-adv-x="490" d="M143 65Q143 98 165 120T221 143Q254 143 276 121T299 65Q299 32 277 10T221 -13Q188 -13 166 9T143 65ZM159 203V399Q176 395 195 395Q230 395 253 404T291 429T312 461T318 495Q318 529 298 551T243
574Q217 574 203 563T181 539T173 513T172 497V491H42V497Q42 542 58 576T102 634T167 670T245 682Q290 682 327 669T391 632T433 573T448 495Q448 460 437 429T405 373T353 331T283 308V203H159Z" />
<glyph unicode="@" glyph-name="at" horiz-adv-x="734" d="M358 230Q374 230 390 238T418 260T438 294T446 341Q446 370 431 392T381 415Q362 415 346 407T317 384T297 349T290 306Q290 267 311 249T358 230ZM476 492H560L520 289Q518 281 517 272T516 255Q516
233 525 227T542 221Q556 221 568 232T588 254Q605 277 616 310T627 379Q627 419 613 459T570 531T495 583T388 603Q319 603 268 578T183 513T132 424T115 327Q115 286 126 248T158 176T209 118T276 80Q308 69 338 66T387 63Q429 63 475 70T574 96L593 20Q537 1
488 -5T393 -12Q364 -12 332 -9T266 4T201 31T138 76Q110 101 90 131T58 195T39 261T33 328Q33 406 60 470T136 581T248 652T388 678Q466 678 524 654T622 588T681 495T701 386Q701 334 687 291T649 218T597 170T536 153Q510 153 488 167T459 209Q436 177 405 161T336
145Q307 145 282 155T237 185T207 234T195 302Q195 351 211 388T252 451T308 489T369 502Q395 502 423 491T468 450L476 492Z" />
<glyph unicode="A" glyph-name="A" horiz-adv-x="672" d="M433 246L339 486L243 246H433ZM471 140H202L143 0H2L291 681H389L670 0H530L471 140Z" />
<glyph unicode="B" glyph-name="B" horiz-adv-x="570" d="M206 106H262Q280 106 304 108T351 124Q375 138 383 159T392 201Q392 217 383 240T343 277Q322 287 299 288T254 290H206V106ZM206 390H243Q250 390 267 391T301 401T331 427T344 477Q344 500 336 516T314
542T282 556T244 561H206V390ZM241 667Q255 667 274 667T316 662T361 650T404 625Q433 602 449 566T466 487Q466 455 457 432T436 393T411 369T391 356Q424 351 444 339T478 314Q493 300 502 284T517 251T524 218T526 189Q526 160 515 123T469 54Q431 21 388 11T300
0H76V667H241Z" />
<glyph unicode="C" glyph-name="C" horiz-adv-x="604" d="M560 24Q530 8 490 -3T395 -15Q351 -15 316 -8T251 11T197 41T151 78Q93 134 69 196T44 333Q44 424 76 489T151 594Q202 642 263 662T396 682Q431 682 472 674T560 641V489Q537 515 513 530T466 552T426
562T399 564Q349 564 308 545T238 494T194 419T178 331Q178 275 197 233T249 162T321 118T404 103Q451 103 491 122T560 176V24Z" />
<glyph unicode="D" glyph-name="D" horiz-adv-x="670" d="M206 112H246Q258 112 277 113T318 118T363 131T409 156Q449 185 470 232T492 333Q492 386 471 433T410 511Q390 526 368 534T325 547T283 553T246 555H206V112ZM250 667Q320 667 381 655T498 602Q559
556 592 487T626 333Q626 249 592 180T492 64Q463 43 434 31T376 12T315 3T248 0H76V667H250Z" />
<glyph unicode="E" glyph-name="E" horiz-adv-x="496" d="M446 555H206V406H436V294H206V112H446V0H76V667H446V555Z" />
<glyph unicode="F" glyph-name="F" horiz-adv-x="466" d="M430 555H206V406H416V294H206V0H76V667H430V555Z" />
<glyph unicode="G" glyph-name="G" horiz-adv-x="764" d="M414 357H720V340Q720 283 708 226T659 115Q629 72 594 47T524 8T455 -10T394 -15Q317 -15 253 10T142 81T70 191T44 333Q44 411 70 475T144 585T256 656T398 682Q469 682 520 663T604 617T657 565T684
525L571 464Q566 473 554 490T520 523T469 552T397 564Q347 564 307 546T238 496T194 422T178 331Q178 292 190 252T228 178T295 124T396 103Q430 103 462 111T520 136T563 180T586 245H414V357Z" />
<glyph unicode="H" glyph-name="H" horiz-adv-x="694" d="M206 409H488V667H618V0H488V297H206V0H76V667H206V409Z" />
<glyph unicode="I" glyph-name="I" horiz-adv-x="282" d="M206 667V0H76V667H206Z" />
<glyph unicode="J" glyph-name="J" horiz-adv-x="390" d="M314 667V217Q314 195 312 168T303 113T280 60T236 15Q214 1 186 -7T127 -15Q91 -15 51 -2T-26 47L53 142Q63 128 79 117T118 106Q139 106 151 113T169 129Q181 146 182 176T184 237V667H314Z" />
<glyph unicode="K" glyph-name="K" horiz-adv-x="636" d="M206 385L451 667H615L333 359L630 0H458L221 299L206 284V0H76V667H206V385Z" />
<glyph unicode="L" glyph-name="L" horiz-adv-x="426" d="M206 667V112H412V0H76V667H206Z" />
<glyph unicode="M" glyph-name="M" horiz-adv-x="870" d="M166 679H256L437 243L626 679H716L828 0H696L636 411L453 -9H417L242 411L174 0H42L166 679Z" />
<glyph unicode="N" glyph-name="N" horiz-adv-x="778" d="M76 0V682H166L572 218V667H702V-13H612L206 451V0H76Z" />
<glyph unicode="O" glyph-name="O" horiz-adv-x="800" d="M400 103Q449 103 489 120T559 167T605 240T622 333Q622 384 606 426T560 499T490 547T400 564Q351 564 311 547T241 499T195 426T178 333Q178 282 194 240T240 168T310 120T400 103ZM400 682Q479 682
544 656T657 584T730 473T756 333Q756 257 730 193T657 83T545 11T400 -15Q321 -15 256 11T143 83T70 193T44 333Q44 409 70 473T143 583T255 656T400 682Z" />
<glyph unicode="P" glyph-name="P" horiz-adv-x="534" d="M206 359H259Q278 359 300 361T344 380Q362 394 371 415T380 458Q380 486 369 504T343 534Q323 548 299 551T251 555H206V359ZM270 667Q326 667 367 658T446 616Q466 598 479 578T500 536T511 494T514
455Q514 445 513 428T506 390T489 347T459 306Q431 278 390 263T290 247H206V0H76V667H270Z" />
<glyph unicode="Q" glyph-name="Q" horiz-adv-x="800" d="M578 189Q594 210 608 243T622 333Q622 384 606 426T560 499T490 547T400 564Q351 564 311 547T241 499T195 426T178 333Q178 283 194 241T240 168T311 120T403 103Q437 103 460 109T502 125L366 257L501
268L578 189ZM590 33Q545 7 501 -4T400 -15Q321 -15 256 10T143 82T70 192T44 333Q44 409 70 473T143 583T255 656T400 682Q479 682 544 656T657 584T730 473T756 333Q756 286 748 249T726 183T697 133T668 96L776 -13L645 -26L590 33Z" />
<glyph unicode="R" glyph-name="R" horiz-adv-x="574" d="M206 360H243Q252 360 273 362T316 373T354 403T371 461Q371 498 355 518T317 548T275 559T245 561H206V360ZM269 667Q338 667 377 652T439 617Q477 585 491 545T505 467Q505 418 486 377T427 310Q414
301 396 294T354 281L562 0H400L222 268H206V0H76V667H269Z" />
<glyph unicode="S" glyph-name="S" horiz-adv-x="534" d="M404 515Q389 534 374 545T344 563T317 570T295 572Q269 572 251 565T223 546T208 521T203 494Q203 482 207 471T224 449Q236 438 254 430T304 411Q343 397 378 382T439 344Q462 324 479 290T496 204Q496
155 479 115T432 46T359 1T264 -15Q218 -15 181 -3T116 29T68 70T34 111L119 192Q131 168 148 151T183 124T221 108T259 103Q304 103 333 128T362 195Q362 230 336 255Q317 272 290 283T233 304Q207 313 178 326T122 362Q114 369 105 380T87 406T74 440T69 486Q69
523 81 558T120 620T187 665T283 682Q299 682 321 680T368 669T419 646T472 604L404 515Z" />
<glyph unicode="T" glyph-name="T" horiz-adv-x="442" d="M286 555V0H156V555H6V667H436V555H286Z" />
<glyph unicode="U" glyph-name="U" horiz-adv-x="688" d="M206 667V248Q206 210 216 186T238 149Q252 132 278 118T344 103Q383 103 409 117T450 149Q461 162 471 186T482 248V667H612V259Q612 211 602 165T562 81Q526 33 468 9T344 -15Q279 -15 221 9T126 81Q96
119 86 165T76 259V667H206Z" />
<glyph unicode="V" glyph-name="V" horiz-adv-x="644" d="M144 667L322 219L500 667H642L356 -15H286L2 667H144Z" />
<glyph unicode="W" glyph-name="W" horiz-adv-x="978" d="M330 -15H238L2 667H140L289 213L452 673H524L678 213L838 667H976L725 -15H633L485 423L330 -15Z" />
<glyph unicode="X" glyph-name="X" horiz-adv-x="640" d="M244 352L45 667H201L318 460L441 667H597L392 352L620 0H464L318 244L164 0H8L244 352Z" />
<glyph unicode="Y" glyph-name="Y" horiz-adv-x="590" d="M227 305L-2 667H152L295 435L438 667H592L357 305V0H227V305Z" />
<glyph unicode="Z" glyph-name="Z" horiz-adv-x="584" d="M238 112H546V0H22L346 555H73V667H562L238 112Z" />
<glyph unicode="[" glyph-name="bracketleft" horiz-adv-x="350" d="M206 645V-56H300V-160H90V749H300V645H206Z" />
<glyph unicode="\" glyph-name="backslash" horiz-adv-x="550" d="M462 -183L80 701L168 741L550 -143L462 -183Z" />
<glyph unicode="]" glyph-name="bracketright" horiz-adv-x="350" d="M144 -56V645H50V749H260V-160H50V-56H144Z" />
<glyph unicode="^" glyph-name="asciicircum" horiz-adv-x="500" d="M135 339H8L170 670H330L492 339H365L250 580L135 339Z" />
<glyph unicode="_" glyph-name="underscore" horiz-adv-x="500" d="M0 -54H500V-158H0V-54Z" />
<glyph unicode="`" glyph-name="grave" horiz-adv-x="500" d="M94 644L182 700L300 550L244 510L94 644Z" />
<glyph unicode="a" glyph-name="a" horiz-adv-x="570" d="M282 339Q256 339 234 330T196 304T171 265T162 217Q162 191 171 169T196 130T234 104T282 94Q308 94 330 103T368 129T393 168T402 217Q402 243 393 265T368 303T330 329T282 339ZM390 433H512V0H390V56Q373
32 355 19T319 -2T285 -12T257 -14Q207 -14 167 4T97 53T52 127T36 217Q36 265 51 307T95 380T163 429T251 447Q263 447 280 445T317 436T356 415T390 377V433Z" />
<glyph unicode="b" glyph-name="b" horiz-adv-x="570" d="M288 339Q262 339 240 330T202 304T177 265T168 217Q168 191 177 169T202 130T240 104T288 94Q314 94 336 103T374 129T399 168T408 217Q408 243 399 265T374 303T336 329T288 339ZM180 377Q196 399 215
413T253 434T289 444T321 447Q369 447 408 430T475 381T518 308T534 217Q534 167 518 125T474 52T406 4T318 -14Q307 -14 291 -12T256 -3T218 18T180 56V0H58V749H180V377Z" />
<glyph unicode="c" glyph-name="c" horiz-adv-x="418" d="M384 301Q364 319 340 329T284 339Q254 339 231 329T193 302T170 263T162 217Q162 190 171 168T197 129T237 103T288 94Q308 94 333 101T384 132V13Q366 4 338 -5T272 -14Q221 -14 178 3T105 49Q80 72
58 113T36 215Q36 272 57 317T111 391Q151 426 193 436T267 447Q301 447 329 441T384 421V301Z" />
<glyph unicode="d" glyph-name="d" horiz-adv-x="570" d="M282 339Q256 339 234 330T196 304T171 265T162 217Q162 191 171 169T196 130T234 104T282 94Q308 94 330 103T368 129T393 168T402 217Q402 243 393 265T368 303T330 329T282 339ZM390 749H512V0H390V56Q373
32 355 19T319 -2T285 -12T257 -14Q207 -14 167 4T97 53T52 127T36 217Q36 265 51 307T95 380T163 429T251 447Q263 447 280 445T317 436T356 415T390 377V749Z" />
<glyph unicode="e" glyph-name="e" horiz-adv-x="522" d="M371 274Q363 319 333 340T268 361Q234 361 204 340T166 274H371ZM483 121Q478 109 466 87T429 42T366 3T270 -14Q217 -14 177 1T104 47Q68 81 52 123T36 216Q36 281 57 322T102 386Q140 423 183 435T265
447Q331 447 371 425T434 376Q451 355 461 333T477 288T484 245T486 206V196H162Q162 176 167 157T183 123Q193 109 214 96T270 82Q305 82 330 97T371 139L483 121Z" />
<glyph unicode="f" glyph-name="f" horiz-adv-x="292" d="M182 329V0H60V329H14V433H60V572Q60 587 61 606T68 646T85 687T117 725Q137 742 163 751T224 761Q262 761 294 746V635Q270 653 239 653Q227 653 216 649T195 631Q187 619 185 601T182 556V433H294V329H182Z" />
<glyph unicode="g" glyph-name="g" horiz-adv-x="568" d="M282 339Q256 339 234 330T196 304T171 265T162 217Q162 191 171 169T196 130T234 104T282 94Q308 94 330 103T368 129T393 168T402 217Q402 243 393 265T368 303T330 329T282 339ZM388 433H510V16Q510
-4 510 -25T505 -69T490 -113T461 -157Q429 -194 383 -213T280 -233Q234 -233 194 -221T124 -185T73 -127T47 -51H179Q186 -88 213 -108T281 -129Q320 -129 342 -114T374 -78T386 -37T388 -7V58Q372 34 354 20T318 -2T284 -12T255 -14Q205 -14 165 4T96 53T52 127T36
217Q36 263 51 304T93 377T161 428T252 447Q282 447 305 440T344 422T371 399T388 377V433Z" />
<glyph unicode="h" glyph-name="h" horiz-adv-x="534" d="M58 749H180V377Q189 389 201 401T229 424T267 440T314 447Q343 447 379 437T442 394Q465 366 470 335T476 272V0H354V236Q354 254 351 279T331 321Q317 336 300 339T274 343Q250 343 232 334T199 305Q185
284 183 262T180 221V0H58V749Z" />
<glyph unicode="i" glyph-name="i" horiz-adv-x="238" d="M46 616Q46 646 67 667T119 689Q149 689 170 668T192 616Q192 586 171 565T119 543Q89 543 68 564T46 616ZM180 433V0H58V433H180Z" />
<glyph unicode="j" glyph-name="j" horiz-adv-x="238" d="M46 616Q46 646 67 667T119 689Q149 689 170 668T192 616Q192 586 171 565T119 543Q89 543 68 564T46 616ZM180 433V-232H58V433H180Z" />
<glyph unicode="k" glyph-name="k" horiz-adv-x="512" d="M180 749V275L342 433H500L297 243L516 0H354L193 185L180 173V0H58V749H180Z" />
<glyph unicode="l" glyph-name="l" horiz-adv-x="238" d="M180 749V0H58V749H180Z" />
<glyph unicode="m" glyph-name="m" horiz-adv-x="790" d="M58 433H180V384Q197 406 216 418T252 437T284 445T309 447Q343 447 367 438T407 416T433 390T446 368Q454 381 466 395T495 420T534 439T585 447Q610 447 629 442T662 429T686 412T702 394Q723 366 727
337T732 272V0H610V236Q610 274 604 293T590 321Q578 336 564 339T540 343Q515 343 499 333T473 305Q461 285 459 262T456 221V0H334V236Q334 274 328 293T314 321Q302 336 288 339T264 343Q239 343 223 333T197 305Q185 285 183 262T180 221V0H58V433Z" />
<glyph unicode="n" glyph-name="n" horiz-adv-x="534" d="M58 433H180V377Q189 389 201 401T229 424T267 440T314 447Q343 447 379 437T442 394Q465 366 470 335T476 272V0H354V236Q354 254 351 279T331 321Q317 336 300 339T274 343Q250 343 232 334T199 305Q185
284 183 262T180 221V0H58V433Z" />
<glyph unicode="o" glyph-name="o" horiz-adv-x="568" d="M284 94Q311 94 333 104T371 130T397 169T406 216Q406 241 397 263T372 303T333 329T284 339Q258 339 236 330T197 303T171 264T162 216Q162 191 171 169T196 131T235 104T284 94ZM284 447Q346 447 388
430T459 386Q491 357 511 314T532 216Q532 163 512 120T459 47Q431 21 389 4T284 -14Q222 -14 180 3T109 47Q77 76 57 119T36 216Q36 270 56 313T109 386Q137 412 179 429T284 447Z" />
<glyph unicode="p" glyph-name="p" horiz-adv-x="570" d="M288 339Q262 339 240 330T202 304T177 265T168 217Q168 191 177 169T202 130T240 104T288 94Q314 94 336 103T374 129T399 168T408 217Q408 243 399 265T374 303T336 329T288 339ZM180 -232H58V433H180V377Q196
399 215 413T253 434T289 444T321 447Q369 447 408 430T475 381T518 308T534 217Q534 167 518 125T474 52T406 4T318 -14Q307 -14 291 -12T256 -3T218 18T180 56V-232Z" />
<glyph unicode="q" glyph-name="q" horiz-adv-x="570" d="M282 339Q256 339 234 330T196 304T171 265T162 217Q162 191 171 169T196 130T234 104T282 94Q308 94 330 103T368 129T393 168T402 217Q402 243 393 265T368 303T330 329T282 339ZM390 433H512V-232H390V56Q373
32 355 19T319 -2T285 -12T257 -14Q207 -14 167 4T97 53T52 127T36 217Q36 265 51 307T95 380T163 429T251 447Q263 447 280 445T317 436T356 415T390 377V433Z" />
<glyph unicode="r" glyph-name="r" horiz-adv-x="360" d="M58 433H180V368Q194 396 210 410T234 428Q264 447 306 447Q322 447 334 444T358 437L342 323Q330 331 317 335T285 339Q268 339 245 333T204 304Q187 282 184 257T180 208V0H58V433Z" />
<glyph unicode="s" glyph-name="s" horiz-adv-x="404" d="M294 330Q272 350 253 354T223 359Q201 359 189 350T176 324Q176 316 182 305T215 285L244 276Q257 272 272 267T302 254T331 237T354 214Q364 200 370 182T376 142Q376 113 365 85T328 32Q302 8 270 -3T198
-14Q164 -14 138 -7T91 11T55 34T30 58L94 132Q112 111 137 97T190 82Q216 82 233 94T250 129Q250 149 237 158T212 173L184 183Q161 191 136 203T91 235Q76 251 67 271T58 318Q58 350 71 375T103 416Q129 436 159 441T216 447Q240 447 276 440T354 401L294 330Z"
/>
<glyph unicode="t" glyph-name="t" horiz-adv-x="270" d="M180 329V0H58V329H10V433H58V581H180V433H264V329H180Z" />
<glyph unicode="u" glyph-name="u" horiz-adv-x="536" d="M180 433V188Q180 171 184 150T206 112Q217 102 234 96T268 90Q285 90 302 96T330 112Q348 129 352 150T356 188V433H478V168Q478 153 477 137T470 103T454 68T425 35Q395 9 352 -2T268 -14Q228 -14 185
-3T111 35Q93 51 83 68T67 102T60 136T58 168V433H180Z" />
<glyph unicode="v" glyph-name="v" horiz-adv-x="504" d="M138 433L252 189L366 433H502L280 -9H224L2 433H138Z" />
<glyph unicode="w" glyph-name="w" horiz-adv-x="792" d="M280 -9H224L2 433H138L252 183L370 445H422L540 183L654 433H790L568 -9H512L396 255L280 -9Z" />
<glyph unicode="x" glyph-name="x" horiz-adv-x="566" d="M208 236L42 433H196L284 321L374 433H528L359 236L564 0H408L284 151L158 0H2L208 236Z" />
<glyph unicode="y" glyph-name="y" horiz-adv-x="538" d="M208 65L2 433H144L278 187L398 433H536L187 -232H49L208 65Z" />
<glyph unicode="z" glyph-name="z" horiz-adv-x="484" d="M226 104H455V0H12L258 329H50V433H472L226 104Z" />
<glyph unicode="{" glyph-name="braceleft" horiz-adv-x="500" d="M235 240Q253 228 264 217T283 191T292 159T295 115V-28Q295 -39 296 -51T308 -74Q321 -87 343 -88T382 -89H400V-193Q388 -194 371 -194T336 -195Q304 -195 273 -191T218 -166Q204 -154 196 -141T184
-113T180 -83T179 -52V110Q179 127 175 143T162 170Q155 178 145 182T124 188V292Q135 294 145 298T162 310Q170 320 174 336T179 370V532Q179 547 179 562T184 592T196 620T218 646Q241 666 272 670T336 675Q353 675 370 675T400 673V569H382Q365 569 343 568T308
554Q298 544 297 532T295 508V365Q295 340 293 322T283 289T265 264T235 240Z" />
<glyph unicode="|" glyph-name="bar" horiz-adv-x="500" d="M189 750H311V-250H189V750Z" />
<glyph unicode="}" glyph-name="braceright" horiz-adv-x="500" d="M265 240Q247 252 236 263T217 289T208 321T205 365V508Q205 519 204 531T192 554Q179 567 157 568T118 569H100V673Q112 674 129 674T164 675Q196 675 227 671T282 646Q310 623 315 593T321
532V370Q321 353 325 337T338 310Q345 302 355 298T376 292V188Q365 186 355 182T338 170Q330 160 326 144T321 110V-52Q321 -82 316 -112T282 -166Q259 -186 228 -190T164 -195Q147 -195 130 -195T100 -193V-89H118Q135 -89 157 -88T192 -74Q202 -64 203 -52T205
-28V115Q205 140 207 158T217 191T235 216T265 240Z" />
<glyph unicode="~" glyph-name="asciitilde" horiz-adv-x="668" d="M578 705Q563 669 541 638T486 589Q466 579 452 577T427 574Q412 574 400 576T376 581T351 590T321 601Q285 615 267 620T231 626Q214 626 202 618T181 600T167 579T160 563L90 603Q94 616 101
632T119 665T141 697T167 722Q184 735 202 739T238 743Q260 743 282 737T346 716Q372 707 393 699T434 691Q460 691 477 704T508 745L578 705Z" />
</font>
</defs>
</svg>
